<?xml version="1.0" encoding="UTF-8" standalone="no"?>
<!-- Created with Inkscape (http://www.inkscape.org/) -->

<svg
        xmlns:dc="http://purl.org/dc/elements/1.1/"
        xmlns:cc="http://creativecommons.org/ns#"
        xmlns:rdf="http://www.w3.org/1999/02/22-rdf-syntax-ns#"
        xmlns:sodipodi="http://sodipodi.sourceforge.net/DTD/sodipodi-0.dtd"
        xmlns:inkscape="http://www.inkscape.org/namespaces/inkscape"
        xmlns="http://www.w3.org/2000/svg"
        viewBox="0 0 744.09448819 1052.3622047"
        id="svg2"
        version="1.1"
        inkscape:version="0.91 r13725"
        sodipodi:docname="logo.svg">
    <defs
            id="defs4"/>
    <sodipodi:namedview
            id="base"
            pagecolor="#ffffff"
            bordercolor="#666666"
            borderopacity="1.0"
            inkscape:pageopacity="0.0"
            inkscape:pageshadow="2"
            inkscape:zoom="0.98994949"
            inkscape:cx="51.757563"
            inkscape:cy="130.30716"
            inkscape:document-units="px"
            inkscape:current-layer="layer1"
            showgrid="false"
            inkscape:window-width="1440"
            inkscape:window-height="837"
            inkscape:window-x="-8"
            inkscape:window-y="-8"
            inkscape:window-maximized="1"/>
    <metadata
            id="metadata7">
        <rdf:RDF>
            <cc:Work
                    rdf:about="">
                <dc:format>image/svg+xml</dc:format>
                <dc:type
                        rdf:resource="http://purl.org/dc/dcmitype/StillImage"/>
                <dc:title></dc:title>
            </cc:Work>
        </rdf:RDF>
    </metadata>
    <g
            inkscape:label="Camada 1"
            inkscape:groupmode="layer"
            id="layer1">
        <rect
                style="fill:#ff8080;fill-opacity:1"
                id="rect4214"
                width="250"
                height="250"
                x="0"
                y="802.36218"/>
        <rect
                style="fill:#800000;fill-opacity:1"
                id="rect4214-8"
                width="237.87817"
                height="237.87817"
                x="0"
                y="814.48407"/>
        <path
                style="fill:#ffffff"
                d="m 101.73659,1042.5674 c -5.561395,-0.5399 -22.010795,-0.7525 -27.065385,-0.35 -9.67779,0.7709 -17.98272,-0.8682 -23.52575,-4.6429 -4.52415,-3.081 -12.63919,-11.0129 -17.62723,-17.2295 -6.267,-7.8105 -13.01576,-19.5866 -16.41507,-28.64289 -2.91794,-7.77392 -4.912541,-16.1164 -5.839311,-24.4232 -0.64737,-5.80269 -0.46943,-17.11898 0.35228,-22.40124 4.025561,-25.87793 18.515591,-44.40838 37.548821,-48.01892 4.91278,-0.93194 9.83137,-0.57066 17.91475,1.31586 8.61559,2.01073 13.103,2.8314 16.53674,3.02429 2.51459,0.14125 3.73454,0.092 3.88844,-0.15702 0.34414,-0.55684 -0.93862,-8.6473 -2.10329,-13.26557 -1.68909,-6.69781 -5.65898,-16.51752 -8.64014,-21.37175 -0.36233,-0.59 -0.60954,-1.09414 -0.54935,-1.12033 0.48552,-0.21124 12.71345,-0.77997 12.92208,-0.60101 0.3684,0.316 1.39296,4.43956 2.04202,8.21855 1.2653,7.36695 1.21697,17.67674 -0.11533,24.59998 -0.55579,2.88819 -0.56116,3.14712 -0.0652,3.14712 0.62564,0 6.214677,-1.19098 12.391275,-2.64048 8.85941,-2.0791 11.47935,-2.44414 17.65851,-2.46037 6.43235,-0.0169 9.20525,0.46002 15.67812,2.69647 13.20288,4.56175 24.90386,15.21433 31.98079,29.11532 5.05154,9.92257 7.13199,19.27299 7.13199,32.05414 0,8.66723 -0.84762,15.32658 -2.96011,23.25624 -4.43522,16.64845 -13.13811,32.01191 -25.35705,44.76341 -7.44249,7.7668 -13.81293,12.0449 -21.39788,14.3698 -2.87056,0.8798 -3.12263,0.8995 -12.3373,0.9592 -5.17378,0.034 -10.59511,-0.054 -12.04741,-0.1952 z m 1.28852,-155.47034 c -4.358188,-0.42277 -8.745915,-1.32774 -8.944315,-1.84475 -0.0983,-0.25616 0.52535,-1.6868 1.38587,-3.1792 5.902675,-10.23703 14.569685,-18.32749 24.591495,-22.95563 10.74042,-4.96 23.34538,-6.27699 34.81901,-3.63796 1.63383,0.37579 3.08295,0.78666 3.22027,0.91305 0.13732,0.12638 -0.5136,1.51016 -1.44648,3.07506 -5.6657,9.50412 -13.62265,16.9418 -23.22806,21.71218 -7.07628,3.51432 -13.16707,5.23519 -20.9753,5.92627 -4.19436,0.37123 -5.51579,0.36996 -9.42249,-0.009 z"
                id="path4184"
                inkscape:connector-curvature="0"
                sodipodi:nodetypes="csssssssssssscssssssssssssssccsssssssccc"/>
    </g>
</svg>
